<?xml version="1.0" encoding="UTF-8"?>
<svg enable-background="new 0 0 800 450" version="1.1" viewBox="0 0 800 450" xml:space="preserve" xmlns="http://www.w3.org/2000/svg" xmlns:xlink="http://www.w3.org/1999/xlink">
<style type="text/css">
	.st0{fill:none;stroke:#1D1E1C;stroke-width:2;stroke-linecap:round;stroke-linejoin:round;}
	.st1{fill:#1D1E1C;}
	.st2{font-family:'ArialMT';}
	.st3{font-size:12px;}
	.st4{fill:#E63812;}
</style>

	
		<image transform="matrix(.9971 0 0 .9831 35 75)" width="692" height="295" overflow="visible" xlink:href="territorio.png">
	</image>


	
		
			<line class="st0" x1="311.1" x2="335.7" y1="227.5" y2="227.4"/>
			
				<path class="st1" d="m311.1 231.3c-2.1 0-3.8-1.7-3.8-3.7 0-2.1 1.7-3.8 3.7-3.8 2.1 0 3.8 1.7 3.8 3.7 0.1 2.1-1.6 3.8-3.7 3.8z"/>
			
		
	
	<text class="st2 st3" transform="translate(340.38 227.5)">HEMBRA</text>


	
		
			<path class="st0" d="m470.5 164.5 179-83.2h45.5"/>
			
				<path class="st1" d="m472.1 167.9c-1.9 0.9-4.1 0.1-5-1.8s-0.1-4.1 1.8-5 4.1-0.1 5 1.8 0.1 4.1-1.8 5z"/>
			
		
	
	<text class="st2 st3" transform="translate(540.2 77.5)">PERIMETRO DE COMUNA DE SANTAIGO, CL</text>


	
		
			<path class="st0" d="m282.1 135.3-71.2-49.3s-82.4 0.1-108.5 0.1"/>
			
				<path class="st1" d="m284.2 132.3c1.7 1.2 2.1 3.5 0.9 5.2s-3.5 2.1-5.2 0.9-2.1-3.5-0.9-5.2 3.5-2.1 5.2-0.9z"/>
			
		
	
	<text class="st2 st3" transform="translate(85.301 77.5)">MACHO</text>


	
		<path class="st4" d="m674.9 243h-19.7c-0.6 0-1.1-0.5-1.1-1.1v-4.8c0-0.6 0.5-1.1 1.1-1.1h19.7c0.6 0 1.1 0.5 1.1 1.1v4.8c0 0.6-0.5 1.1-1.1 1.1z"/>
		
			
				<path class="st0" d="m680.1 239.5s65.4 0.1 91.9 0.1"/>
				
					<path class="st1" d="m680.1 243.3c-2.1 0-3.8-1.7-3.8-3.8s1.7-3.8 3.8-3.8 3.8 1.7 3.8 3.8-1.7 3.8-3.8 3.8z"/>
				
			
		
	
	<text class="st2 st3" transform="translate(744.58 236.04)">ZOO</text>

</svg>
